<svg width="87" height="34" viewBox="0 0 87 34" fill="none" xmlns="http://www.w3.org/2000/svg">
<g clip-path="url(#clip0_49_2073)">
<path fill-rule="evenodd" clip-rule="evenodd" d="M86.8807 12.8126L84.8175 19.7579C84.6858 20.135 84.5534 20.3043 84.2694 20.3043C83.7971 20.3043 83.6834 20.1356 83.7021 19.5891L84.6292 12.587C84.6665 11.7957 85.0829 11.533 85.7267 11.533C86.7489 11.533 87.2591 11.9088 86.8813 12.8126H86.8807ZM84.8001 22.4686C84.8001 22.9396 84.6858 23.3909 84.4024 23.6555C84.1936 23.8614 83.9662 23.9559 83.4951 23.9559C82.7929 23.9559 82.4151 23.6734 82.4151 23.1659C82.4151 22.6942 82.5102 22.2423 82.7942 21.979C83.0017 21.7725 83.2478 21.6779 83.7201 21.6779C84.4211 21.6779 84.8001 21.9611 84.8001 22.4692V22.4686ZM77.0186 24.0499C74.5205 24.0499 72.7618 22.3004 72.7618 19.871C72.7618 17.0663 74.8231 14.5441 77.9072 14.5441C80.4054 14.5441 82.164 16.2948 82.164 18.723C82.164 21.5277 80.1028 24.0499 77.0186 24.0499ZM77.8327 16.0321C75.9205 16.0321 74.4832 17.8001 74.4832 19.7968C74.4832 21.396 75.6185 22.5632 77.0944 22.5632C79.0059 22.5632 80.4439 20.7927 80.4439 18.7972C80.4439 17.1974 79.3086 16.0308 77.832 16.0308L77.8327 16.0321ZM68.8679 19.2874L70.2102 21.3398C70.9684 22.5638 71.2325 22.6936 72.0838 22.7517C72.141 22.7517 72.1789 23.9943 70.872 23.9943C69.9834 23.9943 69.6043 23.6172 68.5827 21.9234L66.9943 19.3245C67.013 19.3245 66.2188 23.0151 66.2188 23.0151C66.0858 23.6734 65.8211 23.8991 65.3674 23.8991H65.14C64.6472 23.8991 64.2128 23.6926 64.3446 23.0151L65.928 15.6055C66.0603 14.9478 66.3257 14.7215 66.7793 14.7215H67.0049C67.4977 14.7215 67.9333 14.9286 67.8003 15.6055L67.146 18.6655L72.0838 14.5441C72.1025 14.5058 73.0303 14.6752 73.0303 15.4838C73.0303 15.8423 72.7848 16.1823 72.3119 16.5575L68.8692 19.288L68.8679 19.2874ZM59.4471 24.1179C57.5766 24.1179 55.5321 22.8407 56.284 19.3023C56.2946 19.2343 57.154 15.6055 57.154 15.6055C57.2882 14.9478 57.553 14.7215 58.0072 14.7215H58.2328C58.725 14.7215 59.16 14.9286 59.0282 15.6055L58.5901 17.1899C59.0264 16.7597 59.5378 16.4753 60.1282 16.4753C62.1901 16.4753 63.5895 17.8495 63.5895 19.8444C63.5895 22.0859 61.9446 24.1185 59.4465 24.1185L59.4471 24.1179ZM60.0716 17.7939C59.2787 17.7939 58.6026 18.1926 58.1452 18.7991C58.1452 18.7991 56.4313 22.8191 59.5036 22.8191C60.9795 22.8191 62.0776 21.4449 62.0776 19.9013C62.0776 18.6958 61.2076 17.7933 60.0716 17.7933V17.7939ZM50.3873 24.0499C48.8169 24.0499 47.681 23.203 47.1894 22.149L46.2243 26.629C46.0926 27.2867 45.8453 27.513 45.373 27.513H45.1654C44.654 27.513 44.2196 27.3065 44.3712 26.629L46.888 14.7877C46.9054 14.7506 47.0956 14.6937 47.3603 14.6937C48.0035 14.6937 48.6094 15.0325 48.3825 16.2948C49.1581 15.1821 50.1797 14.5435 51.5991 14.5435C53.5292 14.5435 55.2698 15.9177 55.2698 18.4962C55.2698 21.3015 53.3024 24.0499 50.3879 24.0499H50.3873ZM51.087 16.0692C49.8765 16.0692 48.7411 16.8221 48.0979 17.9132L47.7574 19.4945C47.4541 21.0758 48.4192 22.5248 50.2555 22.5248C52.2795 22.5248 53.4149 20.5677 53.4149 18.6476C53.4149 17.0292 52.3553 16.0686 51.087 16.0686V16.0692ZM39.7689 24.0499C37.2708 24.0499 35.5121 22.3004 35.5121 19.871C35.5121 17.0663 37.5734 14.5441 40.6576 14.5441C43.1557 14.5441 44.9144 16.2948 44.9144 18.723C44.9144 21.5277 42.8512 24.0499 39.7689 24.0499ZM40.5818 16.0321C38.6709 16.0321 37.2323 17.8001 37.2323 19.7968C37.2323 21.396 38.3676 22.5632 39.8435 22.5632C41.755 22.5632 43.193 20.7927 43.193 18.7972C43.193 17.1974 42.0576 16.0308 40.5818 16.0308V16.0321ZM39.4427 13.3572H33.6534L31.6276 23.0144C31.4772 23.6172 31.2112 23.8984 30.6445 23.8984H30.3611C29.8118 23.8984 29.5284 23.5584 29.6589 22.939L31.8544 12.7174C31.97 12.0022 32.4243 11.6442 33.1234 11.6442H39.6894C40.2188 11.6442 40.5221 11.8322 40.5221 12.1709C40.5221 12.4151 40.3897 12.9239 40.1822 13.1501C40.0498 13.3003 39.8603 13.356 39.4439 13.356L39.4427 13.3572ZM12.9139 23.1035C14.2164 22.0266 15.4891 21.006 16.3827 20.1176C18.7889 17.7234 19.2226 16.1427 19.2226 14.8983C19.2226 13.5581 17.8741 12.0732 16.2385 12.0732C13.8336 12.0732 12.5491 13.7374 12.2471 14.1856H12.1738C11.8711 13.7374 10.5873 12.0739 8.18109 12.0739C6.54549 12.0739 5.19823 13.5587 5.19823 14.899C5.19823 16.144 5.63136 17.724 8.03691 20.1176C10.7364 22.8024 16.8836 26.6741 16.8836 29.7304C16.8836 32.9554 13.5888 33.9958 12.2309 33.9958C10.8725 33.9958 7.53666 33.2849 7.53666 29.7304C7.53666 28.7982 8.10838 27.7893 8.98086 26.7619C9.67562 27.176 10.7333 27.6978 11.2895 28.2659C8.54711 31.3475 10.8358 32.7663 12.2185 32.7724C13.6192 32.7663 16.2578 30.9315 13.0947 28.2412C11.4256 26.8181 0.0012207 21.1543 0.0012207 14.5633C0.0012207 11.4983 2.11843 8.38579 5.29455 8.38579C9.08029 8.38579 11.868 11.2974 12.211 11.6714C12.5547 11.2968 15.3418 8.38579 19.1263 8.38579C22.3018 8.38579 24.4196 11.4983 24.4196 14.5627C24.4196 18.9011 19.5265 22.9162 15.6674 25.5076C14.9112 24.8053 13.7845 23.7853 12.9145 23.1016L12.9139 23.1035ZM15.2567 7.48696C13.1811 7.48696 11.497 5.81169 11.497 3.74696C11.497 1.68223 13.1811 0.00695801 15.2567 0.00695801C17.3341 0.00695801 19.0163 1.68223 19.0163 3.74696C19.0163 5.81169 17.3341 7.48696 15.2567 7.48696ZM11.7922 6.72536C11.1608 7.20136 10.3766 7.48758 9.52399 7.48758C7.44656 7.48758 5.76311 5.8123 5.76311 3.74758C5.76311 1.68285 7.44718 0.00757619 9.52275 0.00757619C10.3766 0.00757619 11.1608 0.293176 11.7922 0.769176C11.044 1.5419 10.5823 2.59096 10.5823 3.74758C10.5823 4.90481 11.044 5.95449 11.7922 6.72598V6.72536Z" fill="white" fill-opacity="0.9"/>
</g>
<defs>
<clipPath id="clip0_49_2073">
<rect width="87" height="34" fill="white"/>
</clipPath>
</defs>
</svg>
