<svg width="78" height="120" viewBox="0 0 78 120" fill="none" xmlns="http://www.w3.org/2000/svg">
<path fill-rule="evenodd" clip-rule="evenodd" d="M40.3145 0.0150445C42.3008 0.10271 43.5861 0.336485 44.8422 0.804035C45.8061 1.18392 47.1206 1.88524 47.734 2.38202C48.3767 2.84956 49.4575 4.1061 50.1585 5.15809C50.8596 6.21008 51.9404 8.48938 52.5831 10.2719C53.2257 12.0545 58.7173 28.3895 64.764 46.5655C70.8399 64.7707 75.7473 79.7323 75.6889 79.8199C75.6305 79.9076 71.7746 79.9661 58.7173 79.9661L57.3736 75.6412C56.6434 73.2742 55.5041 69.5923 53.6054 63.6018H23.5182L17.9681 79.8199L10.0812 79.8784C5.72876 79.9368 2.10661 79.8784 2.01898 79.7323C1.90213 79.6154 7.36457 63.7479 14.1707 44.4615C20.9476 25.1751 26.9651 8.48938 27.4909 7.34973C28.0459 6.2393 29.2143 4.54443 30.0907 3.60933C30.967 2.67423 32.2815 1.62225 33.0117 1.27158C33.742 0.920922 35.0565 0.482594 35.9328 0.278041C36.8676 0.0734882 38.7079 -0.0433992 40.3145 0.0150445V0.0150445ZM33.3915 34.2923L28.1919 49.8675H49.0777C48.7856 48.8448 46.5364 41.7146 43.9074 33.3572C41.2492 24.9997 39.0584 18.1034 39.0292 18.0449C39 17.9865 38.8831 18.1034 38.7663 18.3372C38.6494 18.5709 36.2249 25.7595 33.3915 34.2923V34.2923ZM0.295532 103.636H77.7044V120H0.295532V103.636Z" fill="white"/>
</svg>
