<svg width="166" height="83" viewBox="0 0 166 83" fill="none" xmlns="http://www.w3.org/2000/svg">
<path fill-rule="evenodd" clip-rule="evenodd" d="M82.6963 0C87.6359 0 91.5632 0.0807982 94.2354 0.282794C96.4622 0.44439 99.5595 0.727184 101.118 0.90898C102.677 1.07058 105.228 1.39377 106.787 1.61597C108.345 1.83816 111.26 2.34315 113.265 2.72694C115.269 3.13093 118.326 3.79752 120.046 4.22171C121.767 4.6661 124.581 5.41348 126.281 5.93867C127.962 6.44366 130.796 7.39304 132.537 8.03943C134.298 8.68581 136.464 9.55439 137.355 9.93818C138.246 10.322 139.744 11.0088 140.695 11.433C141.647 11.8773 143.61 12.9075 145.048 13.7155C146.485 14.5235 148.59 15.7759 149.704 16.5232C150.817 17.2504 152.457 18.422 153.348 19.129C154.238 19.836 155.696 21.0681 156.587 21.8761C157.477 22.6841 158.854 24.1183 159.643 25.0475C160.453 25.9766 161.607 27.5118 162.255 28.4612C162.882 29.4106 163.753 30.9053 164.178 31.7941C164.603 32.6829 165.19 34.1575 165.474 35.0866C165.98 36.6824 166 36.9248 166 41.5303C166 45.0248 165.919 46.6408 165.696 47.4488C165.555 48.0548 165.089 49.3273 164.684 50.2767C164.3 51.2261 163.591 52.6199 163.125 53.4076C162.66 54.1954 161.789 55.5084 161.162 56.3366C160.554 57.1648 158.894 59.0029 157.498 60.3967C156.101 61.7905 153.914 63.7094 152.639 64.6588C151.364 65.6082 149.258 67.0424 147.983 67.8503C146.708 68.6381 144.056 70.0925 142.112 71.0621C140.169 72.0518 137.193 73.4052 135.533 74.0718C133.853 74.7384 131.545 75.6272 130.371 76.0312C129.197 76.4351 126.869 77.1623 125.209 77.6471C123.528 78.1319 120.856 78.8591 119.237 79.2429C117.617 79.6267 114.621 80.2731 112.556 80.6569C110.491 81.0406 107.495 81.5456 105.876 81.7678C104.256 81.99 101.118 82.3738 98.8915 82.596C95.3285 82.9596 93.4459 83 83.3037 83C73.1817 83 71.2585 82.9596 67.6146 82.596C65.3271 82.3536 61.8654 81.9496 59.922 81.6668C57.9785 81.384 54.5573 80.7982 52.3305 80.3539C50.1037 79.9095 46.9051 79.1823 45.2451 78.7581C43.5649 78.3339 40.832 77.5461 39.172 77.0411C37.4917 76.5159 34.5766 75.506 32.6939 74.7788C30.8112 74.0516 27.6937 72.7184 25.811 71.8094C23.9283 70.9005 21.4585 69.6279 20.3451 68.9613C19.2317 68.3149 17.268 67.0827 15.9927 66.2142C14.7173 65.3658 12.7941 63.9316 11.7415 63.0428C10.6888 62.1743 9.00854 60.5785 7.99634 59.5281C6.98415 58.4777 5.58732 56.781 4.85854 55.771C4.12976 54.761 3.11756 53.0845 2.57098 52.0543C2.04463 51.0241 1.39683 49.4889 1.11341 48.6607C0.83 47.8326 0.485854 46.4792 0.303659 45.6712C0.121463 44.8026 0 43.1463 0 41.5303C0 39.2276 0.0809756 38.5408 0.607317 36.44C1.0122 34.8442 1.57902 33.2687 2.3078 31.7941C2.89488 30.5619 3.88683 28.8652 4.4739 28.0168C5.08122 27.1684 6.25537 25.6736 7.08537 24.7041C7.91537 23.7547 9.47415 22.1993 10.5268 21.2701C11.5795 20.3612 13.0371 19.1492 13.7659 18.6038C14.4946 18.0786 15.6283 17.2504 16.2963 16.806C16.9644 16.3616 18.3815 15.4729 19.4341 14.8265C20.4868 14.1801 22.8554 12.9075 24.6976 11.9985C26.5398 11.0896 29.4144 9.79679 31.0744 9.11C32.7546 8.44342 35.3863 7.47384 36.9451 6.96885C38.5039 6.44366 40.6902 5.75688 41.8037 5.43368C42.9171 5.11049 45.3261 4.4843 47.1683 4.03991C49.0105 3.59552 51.9661 2.94914 53.7476 2.62594C55.529 2.28255 58.5859 1.77756 60.5293 1.49477C62.4727 1.23217 65.5295 0.868581 67.311 0.686785C69.0924 0.525189 71.6027 0.302993 72.8781 0.201996C74.1534 0.121197 78.5666 0.0201996 82.6963 0V0ZM68.9305 5.93867C67.149 6.12047 64.1934 6.48406 62.3512 6.76685C60.509 7.02945 57.8166 7.47384 56.3793 7.75663C54.942 8.03943 52.29 8.64541 50.5085 9.0696C48.7271 9.51399 45.8524 10.3018 44.1317 10.8472C42.411 11.3926 39.8602 12.2813 38.4634 12.8065C37.0666 13.3317 34.7993 14.2811 33.4024 14.9275C32.0056 15.5537 29.9205 16.604 28.7463 17.2504C27.5722 17.8968 25.6085 19.0886 24.3939 19.8966C23.1793 20.7046 21.4383 21.9367 20.5476 22.6639C19.6568 23.3709 18.0171 24.9061 16.9037 26.0574C15.7902 27.2088 14.3327 28.9864 13.6444 29.9762C12.9763 30.9659 12.1059 32.4809 11.701 33.3091C11.2961 34.1373 10.79 35.4704 10.5471 36.238C10.3041 37.0056 10.0005 38.5206 9.87902 39.5709C9.69683 41.0253 9.69683 41.9747 9.85878 43.5099C10.0005 44.6208 10.3446 46.2974 10.6483 47.2468C10.9317 48.1962 11.5188 49.6505 11.9439 50.4787C12.369 51.3069 13.3002 52.8017 13.9885 53.7914C14.6971 54.7812 16.0939 56.4174 17.1061 57.4274C18.1183 58.4373 19.7985 59.9725 20.8512 60.8209C21.9039 61.6693 23.8676 63.063 25.2037 63.9114C26.5398 64.78 29.4549 66.3556 31.6817 67.4463C33.9085 68.5371 37.0463 69.9309 38.6659 70.5571C40.2854 71.1631 43.2815 72.173 45.3463 72.779C47.4112 73.4052 50.6907 74.2738 52.6341 74.698C54.5776 75.1424 57.8571 75.7888 59.922 76.1119C61.9868 76.4553 65.3068 76.9199 67.311 77.1421C69.3151 77.3441 72.5946 77.6471 74.5988 77.7683C76.8661 77.9097 81.0161 77.9703 85.5305 77.8895C89.9437 77.8289 94.1341 77.6673 96.1585 77.4653C98.0007 77.2835 100.551 77.0007 101.827 76.8189C103.102 76.6573 105.531 76.2937 107.191 76.0109C108.872 75.7484 111.463 75.2434 112.961 74.9C114.459 74.5768 117.192 73.89 119.034 73.385C120.876 72.8598 123.427 72.0922 124.702 71.6479C125.978 71.2035 128.164 70.3955 129.561 69.8299C130.958 69.2643 133.367 68.1735 134.926 67.4059C136.484 66.6182 138.387 65.6284 139.177 65.1638C139.966 64.7194 141.282 63.8912 142.112 63.3458C142.942 62.7802 144.359 61.7703 145.25 61.1037C146.141 60.4371 147.882 58.8817 149.096 57.6496C150.351 56.3972 151.89 54.5792 152.639 53.5086C153.348 52.4583 154.319 50.7615 154.805 49.7717C155.271 48.7819 155.858 47.2266 156.101 46.3378C156.485 44.9844 156.546 44.1966 156.546 41.5909C156.546 38.7832 156.485 38.2782 156 36.642C155.696 35.6522 155.008 33.9151 154.461 32.8041C153.894 31.6931 152.862 30.0165 152.153 29.0672C151.445 28.1178 149.825 26.3402 148.57 25.1283C147.295 23.8961 145.473 22.3205 144.481 21.5933C143.509 20.8661 141.728 19.6744 140.533 18.9068C139.339 18.1594 136.91 16.8262 135.128 15.9375C133.347 15.0689 130.695 13.8771 129.257 13.2913C127.82 12.7257 125.168 11.7763 123.387 11.1906C121.605 10.6048 118.69 9.75639 116.909 9.312C115.127 8.84741 112.293 8.20102 110.633 7.87783C108.953 7.55464 106.058 7.04965 104.155 6.76685C102.252 6.48406 99.2963 6.12047 97.5756 5.95887C95.8549 5.77707 92.6563 5.55488 90.4902 5.43368C88.3242 5.33268 84.7207 5.25189 82.4939 5.27209C80.2671 5.27209 77.028 5.37308 75.3073 5.45388C73.5866 5.53468 70.712 5.75688 68.9305 5.93867ZM29.3537 20.3814H35.9937C41.1559 20.3612 42.6741 20.4218 42.8563 20.6238C43.0183 20.8055 43.0993 22.9063 43.16 27.8956C43.2005 31.7335 43.3017 34.9654 43.3827 35.0664C43.4637 35.1472 43.7066 35.127 43.8888 35.0058C44.071 34.8846 46.399 31.7537 49.0307 28.037C51.6827 24.3203 54.0715 21.0883 54.3549 20.8257C54.861 20.3814 54.9217 20.3814 66.8049 20.3814L67.0276 20.8257C67.23 21.2499 66.8859 21.8559 63.4646 26.9462C61.3795 30.0569 58.5454 34.2787 54.618 40.0759L54.942 40.6819C55.1039 41.0253 58.4239 45.7924 62.331 51.2867C66.238 56.781 69.4771 61.4875 69.5378 61.7501C69.5985 61.9925 69.5176 62.3358 69.3961 62.4974C69.1734 62.7802 68.3029 62.8206 63.0598 62.8004C58.7073 62.8004 56.8651 62.7196 56.5412 62.5378C56.2983 62.3965 53.4237 58.5787 50.1644 54.0338C46.9051 49.4889 44.071 45.6712 43.8888 45.55C43.7066 45.4288 43.4637 45.4086 43.3827 45.4894C43.3017 45.5904 43.2005 49.4081 43.16 53.9732C43.0993 59.9725 43.0183 62.3763 42.8563 62.558C42.6741 62.76 41.419 62.8206 37.4512 62.8206C32.8559 62.8206 32.2485 62.7802 31.9854 62.4772C31.7222 62.1743 31.6817 59.6291 31.6007 42.7221C31.5602 28.4006 31.4793 23.2699 31.2971 23.1689C31.1756 23.0881 30.6898 23.0073 29.3537 23.0073V20.3814ZM74.8822 20.3814H81.7246C86.9881 20.3814 88.6278 20.442 88.8302 20.6238C89.0327 20.8257 89.0732 25.1485 89.0732 41.5909C89.0732 57.589 89.0327 62.3561 88.8302 62.558C88.648 62.7398 87.2512 62.8004 83.2227 62.8004C79.1334 62.8004 77.7771 62.7398 77.5746 62.558C77.3722 62.3561 77.3317 58.2959 77.3317 42.9039C77.352 27.2694 77.2912 23.4719 77.0888 23.2699C76.9471 23.1487 76.4207 23.0073 75.0037 22.9063L74.8822 20.3814ZM107.232 20.3814H115.512C121.889 20.3814 123.872 20.442 124.136 20.6238C124.358 20.7853 126.99 28.34 131.282 41.1869C135.007 52.3573 138.063 61.6693 138.063 61.8915C138.063 62.1137 137.962 62.4167 137.82 62.558C137.638 62.7398 136.262 62.8004 132.355 62.8004C127.395 62.8004 127.111 62.7802 126.727 62.3964C126.484 62.1541 125.694 60.0331 124.723 57.0032C123.832 54.2358 121.909 48.2366 120.411 43.6513C118.751 38.5408 117.617 35.329 117.455 35.329C117.313 35.329 116.747 36.743 116.099 38.7226C115.512 40.5809 113.73 46.1358 112.151 51.0847C110.572 56.0336 109.155 60.5381 108.973 61.0835C108.77 61.6289 108.467 62.2551 108.264 62.4368C107.94 62.76 107.374 62.8004 102.738 62.8004C99.9037 62.8004 97.4339 62.76 97.2719 62.6994C97.11 62.6388 96.9683 62.3561 96.9683 62.0329C96.9683 61.7299 99.7822 53.0238 103.244 42.7019C106.706 32.3597 109.499 23.7345 109.479 23.5123C109.418 23.1891 109.236 23.1083 108.447 23.0477C107.698 23.0275 107.495 22.9265 107.495 22.6437C107.495 22.4619 107.434 21.8761 107.353 21.3307L107.232 20.3814Z" fill="white"/>
</svg>
