<svg width="120" height="120" viewBox="0 0 120 120" fill="none" xmlns="http://www.w3.org/2000/svg">
<path d="M0.782257 36.3307C0.802277 26.6996 4.57989 17.4689 11.288 10.6596C17.9961 3.85035 27.0881 0.0174158 36.5735 0H119.203V18.4675H36.5949C31.9343 18.4877 27.47 20.3759 24.1733 23.7212C20.8767 27.0665 19.0144 31.5983 18.9916 36.3307L18.8834 67.3334C18.5062 71.3055 16.8441 75.0388 14.1565 77.9508C11.469 80.8623 7.90751 82.7881 4.02813 83.428L0.782257 83.9333V36.3307Z" fill="white"/>
<path d="M0.78678 120V101.532H83.4158C88.0775 101.51 92.5419 99.6183 95.8383 96.2718C99.1343 92.9243 100.997 88.3916 101.019 83.6586V54.2375C101.042 49.9693 102.559 45.8481 105.297 42.6101C108.037 39.3722 111.82 37.2283 115.972 36.561L119.218 36.0667V83.6586C119.197 93.2905 115.42 102.522 108.712 109.334C102.005 116.144 92.9128 119.979 83.4265 120H0.78678Z" fill="white"/>
<path d="M70.786 83.9988V60.1265L60.0096 73.1889L49.2439 60.1265V83.9988H34.973V37.0229H48.4868L60.0096 52.1285L71.5324 37.0229H85.0462V83.9988H70.786Z" fill="white"/>
</svg>
