<svg width="120" height="120" viewBox="0 0 120 120" fill="none" xmlns="http://www.w3.org/2000/svg">
<path fill-rule="evenodd" clip-rule="evenodd" d="M87.8463 6.8022C106.95 16.8492 120 36.88 120 59.9692C120 83.0585 106.95 103.152 87.8463 113.138V106.272C95.1521 101.902 101.332 95.7865 105.829 88.5485L87.8463 81.249V70.1409L107.575 85.5548C111.696 77.941 114.006 69.2662 114.006 59.9676C114.006 40.3726 103.516 23.1508 87.8463 13.6644V6.8022ZM60.0632 0C70.0532 0 79.4795 2.43477 87.8463 6.8022V13.6675C80.1663 9.04749 71.1758 6.30324 61.6863 5.99061L68.5532 55.1028L87.8463 70.1409V81.249L59.9369 69.9546L32.2153 81.3121V70.2657L51.6332 55.1012L58.4384 5.98903C48.8227 6.30166 39.8953 9.04749 32.2153 13.6644V6.8022C40.5205 2.43477 50.01 0 60.0632 0ZM87.8463 113.138C79.4795 117.505 70.0516 120 60.0632 120C50.0116 120 40.5221 117.505 32.2169 113.199V106.272C40.3342 111.2 49.8853 114.009 60.0632 114.009C70.1779 114.009 79.6689 111.2 87.8463 106.272V113.138ZM32.2169 113.199C13.0484 103.152 0 83.0585 0 59.9692C0 36.88 13.0468 16.8492 32.2153 6.8022L32.2169 13.6675C16.4826 23.1524 5.99369 40.3126 5.99369 59.9692C5.99369 69.2662 8.36685 78.0673 12.4879 85.6796L32.2153 70.2657V81.3121L14.2974 88.6733C18.7926 95.8528 24.9111 101.903 32.2169 106.272V113.199Z" fill="white"/>
</svg>
