<svg width="122" height="120" viewBox="0 0 122 120" fill="none" xmlns="http://www.w3.org/2000/svg">
<path fill-rule="evenodd" clip-rule="evenodd" d="M0.995392 0H16.2508V104.746H43.202L71.8822 18.8136L101.681 18.3051V101.695H83.3746C73.306 101.695 65.0681 101.39 65.0681 100.881C65.0681 100.475 66.0851 96.9153 69.8481 85.9322L86.4257 85.4237V60C86.4257 36.4068 86.324 34.5763 84.595 34.5763C83.1712 34.678 80.2218 42.9152 54.8978 120H0.995392V0ZM19.3019 0H35.5743L35.3709 34.0678C35.1675 52.7797 35.2692 67.5254 35.4726 66.9153C35.7777 66.2034 40.7612 50.9492 57.5421 0.508474L120.903 0L121.005 120H89.9853C72.8992 120 58.9659 119.695 58.9659 119.288C58.9659 118.78 59.983 115.424 63.5426 104.746H105.749V15.2542H69.1362L40.6595 101.695H19.3019V0Z" fill="white"/>
</svg>
