<svg width="72" height="120" viewBox="0 0 72 120" fill="none" xmlns="http://www.w3.org/2000/svg">
<g clip-path="url(#clip0_49_1642)">
<path d="M25.0537 90.0292C22.0378 93.0422 19.579 95.5001 17.5266 97.5518C15.88 99.1978 14.495 100.582 13.2937 101.782L12.8812 101.369L12.8802 101.37C10.989 103.27 9.09771 105.171 7.20645 107.087C5.25019 109.036 3.9568 110.336 3.9568 110.336M25.0537 90.0292L13.2949 101.781L13.2943 101.782C11.4028 103.682 9.51227 105.581 7.62192 107.497L7.61846 107.5C6.6407 108.475 5.82861 109.287 5.26101 109.855C4.97721 110.139 4.75453 110.362 4.60283 110.514L4.42974 110.688L4.38543 110.733L4.37576 110.742M25.0537 90.0292L54.274 119.45L25.0537 90.0292ZM3.9568 110.336L4.38059 110.737C4.37898 110.739 4.37737 110.741 4.37576 110.742M3.9568 110.336C3.00292 111.343 2.42089 112.805 2.42089 114.316L4.37576 110.742M3.9568 110.336L4.37052 110.748L4.37057 110.748L4.37074 110.747L4.37144 110.747L4.37424 110.744L4.37576 110.742" stroke="white" stroke-width="1.16741"/>
<path d="M2.40464 114.332C2.40464 112.821 2.98667 111.359 3.94054 110.352C3.94054 110.352 5.25011 109.036 7.20637 107.087C8.75844 105.511 10.4237 103.822 12.8811 101.369C15.6296 98.6077 19.3805 94.8716 25.0391 89.2187L25.0552 89.2025L30.5683 83.6958L30.6815 83.5821C39.8484 74.4367 52.8794 61.3928 72.0055 42.2412L29.9863 0.00693971L6.18782 23.9343C-0.925854 31.0816 0.044192 35.7599 0.044192 45.3438V111.002C0.044192 114.884 2.46931 118.182 5.89681 119.449C3.84354 118.62 2.40464 116.687 2.40464 114.332Z" fill="white"/>
</g>
<defs>
<clipPath id="clip0_49_1642">
<rect width="72" height="120" fill="white"/>
</clipPath>
</defs>
</svg>
