<svg width="120" height="120" viewBox="0 0 120 120" fill="none" xmlns="http://www.w3.org/2000/svg">
<path d="M106.851 23.3142C109.663 26.9992 112.044 31.0028 113.945 35.2443L60.0144 75.5348L37.4753 61.2158V43.9893L60.0144 58.3083L106.851 23.3142Z" fill="white"/>
<path d="M14.4724 60C14.4724 59.227 14.491 58.4591 14.5282 57.6957L0.868825 57.0173C0.822333 58.0068 0.79445 59.0058 0.79445 60.0139C0.788638 67.8914 2.31752 75.6922 5.29341 82.9691C8.26929 90.2463 12.6336 96.8563 18.136 102.42L27.8249 92.6053C23.5894 88.3302 20.2293 83.2486 17.9378 77.6531C15.6463 72.0576 14.4686 66.0581 14.4724 60Z" fill="white"/>
<path d="M60.002 13.8585C60.7643 13.8585 61.5219 13.8867 62.2751 13.9244L62.9586 0.07654C61.9794 0.0294224 60.9936 0.00586642 60.002 0.00586642C52.2254 -0.00374444 44.524 1.54347 37.3394 4.55867C30.1548 7.57388 23.6287 11.9977 18.1357 17.5761L27.8247 27.3954C32.0433 23.1014 37.0578 19.6949 42.58 17.3718C48.1021 15.0487 54.0227 13.8546 60.002 13.8585Z" fill="white"/>
<path d="M60.002 106.142C59.2396 106.142 58.4817 106.142 57.7241 106.081L57.0406 119.924C58.0231 119.975 59.0103 120 60.002 120C67.7752 120.008 75.4729 118.46 82.6537 115.444C89.8345 112.428 96.3564 108.003 101.845 102.425L92.1748 92.6104C87.9554 96.9021 82.9413 100.307 77.4203 102.629C71.8992 104.951 65.9798 106.145 60.002 106.142Z" fill="white"/>
<path d="M85.6661 21.9098L97.1774 13.3108C86.6559 4.67633 73.5223 -0.0239684 59.9836 9.19146e-05V13.8574C69.1514 13.8459 78.1063 16.6537 85.6661 21.9098Z" fill="white"/>
<path d="M119.205 60C119.213 56.3951 118.902 52.7965 118.275 49.2477L105.532 58.7655C105.532 59.1756 105.532 59.5854 105.532 60C105.535 66.447 104.202 72.8229 101.618 78.7141C99.0345 84.6053 95.2579 89.8806 90.5337 94.1979L99.7253 104.493C105.867 98.874 110.775 92.0095 114.131 84.3448C117.487 76.6798 119.216 68.3856 119.205 60Z" fill="white"/>
<path d="M60.002 106.142C53.6401 106.145 47.3489 104.793 41.5351 102.174C35.7216 99.5561 30.5154 95.7292 26.2537 90.9423L16.0999 100.253C21.6438 106.478 28.417 111.453 35.9802 114.855C43.5434 118.257 51.7272 120.01 60.002 120V106.142Z" fill="white"/>
<path d="M29.4708 25.8017L20.2839 15.5065C14.1403 21.1247 9.23057 27.9888 5.87303 35.6538C2.51554 43.3187 0.78528 51.6133 0.79447 59.9996L14.4724 60C14.4696 53.5533 15.8033 47.1771 18.387 41.2859C20.9707 35.3948 24.7468 30.1194 29.4708 25.8017Z" fill="white"/>
</svg>
