<svg width="96" height="96" viewBox="0 0 96 96" fill="none" xmlns="http://www.w3.org/2000/svg">
<path d="M36 88H60C80 88 88 80 88 60V36C88 16 80 8 60 8H36C16 8 8 16 8 36V60C8 80 16 88 36 88Z" stroke="white" stroke-width="1.5" stroke-linecap="round" stroke-linejoin="round"/>
<path d="M48 62C55.732 62 62 55.732 62 48C62 40.268 55.732 34 48 34C40.268 34 34 40.268 34 48C34 55.732 40.268 62 48 62Z" stroke="white" stroke-width="1.5" stroke-linecap="round" stroke-linejoin="round"/>
<path d="M70.5445 28H70.5907" stroke="white" stroke-width="2" stroke-linecap="round" stroke-linejoin="round"/>
</svg>
