<svg width="29" height="29" viewBox="0 0 29 29" fill="none" xmlns="http://www.w3.org/2000/svg">
<path d="M19.5629 2.4165H9.43704C5.03871 2.4165 2.41663 5.03859 2.41663 9.43692V19.5507C2.41663 23.9611 5.03871 26.5832 9.43704 26.5832H19.5508C23.9491 26.5832 26.5712 23.9611 26.5712 19.5628V9.43692C26.5833 5.03859 23.9612 2.4165 19.5629 2.4165ZM14.5 19.1882C11.9141 19.1882 9.81163 17.0857 9.81163 14.4998C9.81163 11.914 11.9141 9.8115 14.5 9.8115C17.0858 9.8115 19.1883 11.914 19.1883 14.4998C19.1883 17.0857 17.0858 19.1882 14.5 19.1882ZM21.6533 8.31317C21.5929 8.45817 21.5083 8.59109 21.3995 8.71192C21.2787 8.82067 21.1458 8.90525 21.0008 8.96567C20.7809 9.05901 20.5382 9.08473 20.3036 9.03953C20.069 8.99434 19.8532 8.88028 19.6837 8.71192C19.575 8.59109 19.4904 8.45817 19.43 8.31317C19.3679 8.16795 19.335 8.01192 19.3333 7.854C19.3333 7.69692 19.3695 7.53984 19.43 7.39484C19.4904 7.23775 19.575 7.11692 19.6837 6.99609C19.9616 6.71817 20.3845 6.58525 20.7712 6.66984C20.8558 6.68192 20.9283 6.70609 21.0008 6.74234C21.0733 6.7665 21.1458 6.80275 21.2183 6.85109C21.2787 6.88734 21.3391 6.94775 21.3995 6.99609C21.5083 7.11692 21.5929 7.23775 21.6533 7.39484C21.7137 7.53984 21.75 7.69692 21.75 7.854C21.75 8.01109 21.7137 8.16817 21.6533 8.31317Z" fill="white" fill-opacity="0.9"/>
</svg>
