<svg width="432" height="46" viewBox="0 0 432 46" fill="none" xmlns="http://www.w3.org/2000/svg">
<path d="M21.748 14.0104C21.8333 14.0104 21.8973 14.1598 21.94 14.4584C22.0253 14.7144 22.068 14.9918 22.068 15.2904C22.068 15.6318 22.0253 15.9518 21.94 16.2504C21.8973 16.5064 21.8333 16.6344 21.748 16.6344H12.532V25.8504C12.532 25.9358 12.3613 26.0211 12.02 26.1064C11.6787 26.1491 11.3373 26.1704 10.996 26.1704C10.228 26.1704 9.844 26.1064 9.844 25.9784V16.6344H0.627999C0.542665 16.6344 0.457332 16.4851 0.371999 16.1864C0.329332 15.8878 0.307999 15.5678 0.307999 15.2264C0.307999 14.9278 0.329332 14.6504 0.371999 14.3944C0.414665 14.1384 0.478665 14.0104 0.563999 14.0104H9.844V4.79444C9.844 4.70911 9.972 4.64511 10.228 4.60244C10.5267 4.51711 10.8467 4.47444 11.188 4.47444C11.5293 4.47444 11.828 4.51711 12.084 4.60244C12.3827 4.64511 12.532 4.70911 12.532 4.79444V14.0104H21.748Z" fill="white"/>
<path d="M37.712 41.3384C37.5413 41.7224 37.3493 42.0211 37.136 42.2344C36.9653 42.4478 36.7093 42.6611 36.368 42.8744L32.784 45.0504C32.6987 45.0931 32.592 45.0504 32.464 44.9224C32.336 44.7944 32.2933 44.6878 32.336 44.6024L49.36 6.84244C49.488 6.54377 49.3813 6.39444 49.04 6.39444C42.768 6.39444 38.3947 6.47977 35.92 6.65044C33.488 6.82111 31.8667 7.18377 31.056 7.73844C30.288 8.29311 29.6907 9.29577 29.264 10.7464C29.264 10.8318 29.1787 10.8744 29.008 10.8744C28.88 10.8744 28.752 10.8531 28.624 10.8104C28.5387 10.7251 28.5173 10.6398 28.56 10.5544L30.864 1.01844C30.9067 0.933106 31.056 0.911772 31.312 0.954438C31.568 0.954438 31.6747 0.997105 31.632 1.08244C31.5893 1.25311 31.568 1.46644 31.568 1.72244C31.568 2.14911 31.76 2.42644 32.144 2.55444C32.5707 2.68244 33.4027 2.74644 34.64 2.74644H51.6C51.7707 2.74644 51.92 2.85311 52.048 3.06644C52.2187 3.23711 52.2613 3.40777 52.176 3.57844L37.712 41.3384Z" fill="white"/>
<path d="M87.1255 20.5384C85.0775 20.5384 83.3708 20.1118 82.0055 19.2584C80.6828 18.3624 79.7015 17.2531 79.0615 15.9304C78.4215 14.6078 78.1015 13.2424 78.1015 11.8344C78.1015 9.91444 78.6135 8.20777 79.6375 6.71444C80.6615 5.22111 82.0695 4.04777 83.8615 3.19444C85.6535 2.34111 87.6588 1.91444 89.8775 1.91444C93.8455 1.91444 97.0028 3.27977 99.3495 6.01044C101.696 8.69844 102.869 12.2824 102.869 16.7624C102.869 20.6451 101.952 24.4851 100.118 28.2824C98.3255 32.0798 95.7015 35.4718 92.2455 38.4584C88.8322 41.4451 84.8002 43.6424 80.1495 45.0504C80.0215 45.0931 79.8935 45.0078 79.7655 44.7944C79.6802 44.5811 79.7228 44.4318 79.8935 44.3464C83.8188 42.7251 87.1682 40.4638 89.9415 37.5624C92.7148 34.6611 94.8055 31.4824 96.2135 28.0264C97.6215 24.6131 98.3255 21.2851 98.3255 18.0424C98.3255 15.7811 97.9842 13.5198 97.3015 11.2584C96.6615 8.95444 95.6375 7.03444 94.2295 5.49844C92.8215 3.91977 91.0295 3.13044 88.8535 3.13044C86.8908 3.13044 85.3548 3.79177 84.2455 5.11444C83.1788 6.43711 82.6455 8.25044 82.6455 10.5544C82.6455 12.9011 83.2215 14.8424 84.3735 16.3784C85.5255 17.8718 87.1895 18.6184 89.3655 18.6184C90.3895 18.6184 91.3282 18.4478 92.1815 18.1064C93.0348 17.7651 93.9735 17.1678 94.9975 16.3144C95.0402 16.2718 95.1042 16.2504 95.1895 16.2504C95.3175 16.2504 95.4455 16.3144 95.5735 16.4424C95.7015 16.5704 95.7442 16.6771 95.7015 16.7624C93.5255 19.2798 90.6668 20.5384 87.1255 20.5384Z" fill="white"/>
<path d="M117.579 7.93044C117.579 6.60777 117.451 5.64777 117.196 5.05044C116.94 4.45311 116.427 4.04777 115.66 3.83444C114.934 3.62111 113.761 3.51444 112.14 3.51444C112.012 3.51444 111.948 3.38644 111.948 3.13044C111.948 2.87444 112.012 2.74644 112.14 2.74644C113.42 2.74644 114.422 2.76777 115.147 2.81044L119.563 2.87444L123.916 2.81044C124.684 2.76777 125.708 2.74644 126.988 2.74644C127.116 2.74644 127.18 2.87444 127.18 3.13044C127.18 3.38644 127.116 3.51444 126.988 3.51444C125.451 3.51444 124.299 3.64244 123.532 3.89844C122.764 4.11177 122.23 4.51711 121.932 5.11444C121.676 5.71177 121.548 6.65044 121.548 7.93044V22.2664C121.548 23.5891 121.676 24.5491 121.932 25.1464C122.188 25.7438 122.678 26.1491 123.404 26.3624C124.172 26.5758 125.366 26.6824 126.988 26.6824C127.116 26.6824 127.18 26.8104 127.18 27.0664C127.18 27.3224 127.116 27.4504 126.988 27.4504C125.708 27.4504 124.705 27.4291 123.979 27.3864L119.563 27.3224L115.212 27.3864C114.444 27.4291 113.42 27.4504 112.14 27.4504C112.012 27.4504 111.948 27.3224 111.948 27.0664C111.948 26.8104 112.012 26.6824 112.14 26.6824C113.676 26.6824 114.828 26.5758 115.596 26.3624C116.364 26.1064 116.876 25.6798 117.132 25.0824C117.43 24.4851 117.579 23.5464 117.579 22.2664V7.93044Z" fill="white"/>
<path d="M144.525 20.5384C142.477 20.5384 140.771 20.1118 139.406 19.2584C138.083 18.3624 137.102 17.2531 136.462 15.9304C135.822 14.6078 135.501 13.2424 135.501 11.8344C135.501 9.91444 136.014 8.20777 137.038 6.71444C138.062 5.22111 139.469 4.04777 141.262 3.19444C143.054 2.34111 145.059 1.91444 147.277 1.91444C151.245 1.91444 154.403 3.27977 156.749 6.01044C159.096 8.69844 160.27 12.2824 160.27 16.7624C160.27 20.6451 159.352 24.4851 157.518 28.2824C155.726 32.0798 153.101 35.4718 149.645 38.4584C146.232 41.4451 142.2 43.6424 137.549 45.0504C137.421 45.0931 137.294 45.0078 137.165 44.7944C137.08 44.5811 137.123 44.4318 137.294 44.3464C141.219 42.7251 144.568 40.4638 147.341 37.5624C150.115 34.6611 152.205 31.4824 153.613 28.0264C155.021 24.6131 155.725 21.2851 155.725 18.0424C155.725 15.7811 155.384 13.5198 154.701 11.2584C154.061 8.95444 153.038 7.03444 151.63 5.49844C150.221 3.91977 148.429 3.13044 146.253 3.13044C144.291 3.13044 142.755 3.79177 141.645 5.11444C140.579 6.43711 140.046 8.25044 140.046 10.5544C140.046 12.9011 140.622 14.8424 141.773 16.3784C142.925 17.8718 144.59 18.6184 146.766 18.6184C147.79 18.6184 148.728 18.4478 149.581 18.1064C150.435 17.7651 151.374 17.1678 152.398 16.3144C152.44 16.2718 152.504 16.2504 152.589 16.2504C152.717 16.2504 152.845 16.3144 152.973 16.4424C153.102 16.5704 153.144 16.6771 153.102 16.7624C150.926 19.2798 148.067 20.5384 144.525 20.5384Z" fill="white"/>
<path d="M193.179 7.93044C193.179 6.60777 193.051 5.64777 192.795 5.05044C192.539 4.45311 192.027 4.04777 191.259 3.83444C190.534 3.62111 189.361 3.51444 187.739 3.51444C187.611 3.51444 187.547 3.38644 187.547 3.13044C187.547 2.87444 187.611 2.74644 187.739 2.74644C189.019 2.74644 190.022 2.76777 190.747 2.81044L195.163 2.87444L199.515 2.81044C200.283 2.76777 201.307 2.74644 202.587 2.74644C202.715 2.74644 202.779 2.87444 202.779 3.13044C202.779 3.38644 202.715 3.51444 202.587 3.51444C201.051 3.51444 199.9 3.64244 199.132 3.89844C198.363 4.11177 197.83 4.51711 197.531 5.11444C197.275 5.71177 197.147 6.65044 197.147 7.93044V22.2664C197.147 23.5891 197.275 24.5491 197.531 25.1464C197.787 25.7438 198.278 26.1491 199.003 26.3624C199.771 26.5758 200.966 26.6824 202.587 26.6824C202.715 26.6824 202.779 26.8104 202.779 27.0664C202.779 27.3224 202.715 27.4504 202.587 27.4504C201.307 27.4504 200.305 27.4291 199.579 27.3864L195.163 27.3224L190.811 27.3864C190.043 27.4291 189.019 27.4504 187.739 27.4504C187.611 27.4504 187.547 27.3224 187.547 27.0664C187.547 26.8104 187.611 26.6824 187.739 26.6824C189.275 26.6824 190.427 26.5758 191.195 26.3624C191.964 26.1064 192.475 25.6798 192.731 25.0824C193.03 24.4851 193.179 23.5464 193.179 22.2664V7.93044Z" fill="white"/>
<path d="M220.126 20.5384C218.077 20.5384 216.371 20.1118 215.006 19.2584C213.683 18.3624 212.702 17.2531 212.062 15.9304C211.422 14.6078 211.102 13.2424 211.102 11.8344C211.102 9.91444 211.614 8.20777 212.638 6.71444C213.662 5.22111 215.07 4.04777 216.862 3.19444C218.654 2.34111 220.659 1.91444 222.878 1.91444C226.846 1.91444 230.003 3.27977 232.35 6.01044C234.696 8.69844 235.87 12.2824 235.87 16.7624C235.87 20.6451 234.952 24.4851 233.118 28.2824C231.326 32.0798 228.701 35.4718 225.245 38.4584C221.832 41.4451 217.8 43.6424 213.15 45.0504C213.021 45.0931 212.894 45.0078 212.766 44.7944C212.68 44.5811 212.723 44.4318 212.894 44.3464C216.819 42.7251 220.168 40.4638 222.941 37.5624C225.715 34.6611 227.805 31.4824 229.214 28.0264C230.622 24.6131 231.326 21.2851 231.326 18.0424C231.326 15.7811 230.984 13.5198 230.301 11.2584C229.661 8.95444 228.638 7.03444 227.23 5.49844C225.822 3.91977 224.029 3.13044 221.854 3.13044C219.891 3.13044 218.355 3.79177 217.245 5.11444C216.179 6.43711 215.646 8.25044 215.646 10.5544C215.646 12.9011 216.222 14.8424 217.374 16.3784C218.525 17.8718 220.19 18.6184 222.366 18.6184C223.39 18.6184 224.328 18.4478 225.182 18.1064C226.035 17.7651 226.974 17.1678 227.998 16.3144C228.04 16.2718 228.104 16.2504 228.189 16.2504C228.318 16.2504 228.445 16.3144 228.574 16.4424C228.702 16.5704 228.744 16.6771 228.702 16.7624C226.526 19.2798 223.667 20.5384 220.126 20.5384Z" fill="white"/>
<path d="M244.307 26.3624C248.062 23.2904 250.921 20.7944 252.883 18.8744C254.889 16.9118 256.318 15.2051 257.171 13.7544C258.067 12.2611 258.515 10.7678 258.515 9.27444C258.515 7.56777 258.003 6.18111 256.98 5.11444C255.956 4.00511 254.633 3.45044 253.012 3.45044C249.769 3.45044 247.358 6.11711 245.779 11.4504C245.779 11.4931 245.694 11.5144 245.523 11.5144C245.139 11.5144 244.969 11.4291 245.012 11.2584L247.572 1.33844C247.572 1.25311 247.657 1.21044 247.827 1.21044C247.956 1.21044 248.062 1.25311 248.148 1.33844C248.276 1.38111 248.318 1.42377 248.275 1.46644C248.233 1.63711 248.212 1.87177 248.212 2.17044C248.212 2.85311 248.532 3.19444 249.172 3.19444C249.513 3.19444 250.174 3.04511 251.156 2.74644C252.905 2.19177 254.462 1.91444 255.827 1.91444C258.046 1.91444 259.796 2.49044 261.076 3.64244C262.356 4.79444 262.995 6.30911 262.995 8.18644C262.995 9.76511 262.483 11.3224 261.459 12.8584C260.436 14.3518 259.049 15.8664 257.3 17.4024C255.55 18.9384 253.012 20.9864 249.684 23.5464C249.555 23.6744 249.513 23.7811 249.555 23.8664C249.641 23.9518 249.79 23.9944 250.003 23.9944C254.398 23.9944 257.513 23.9304 259.347 23.8024C261.182 23.6318 262.526 23.2904 263.38 22.7784C264.233 22.2238 264.809 21.2851 265.107 19.9624C265.107 19.8771 265.214 19.8344 265.428 19.8344C265.726 19.8344 265.876 19.8984 265.876 20.0264L264.852 26.7464C264.852 26.9171 264.787 27.0878 264.66 27.2584C264.574 27.3864 264.446 27.4504 264.275 27.4504H244.756C244.542 27.4504 244.372 27.3224 244.243 27.0664C244.115 26.7678 244.137 26.5331 244.307 26.3624Z" fill="white"/>
<path d="M272.937 17.0184C272.852 17.0611 272.767 16.9118 272.682 16.5704C272.639 16.1864 272.618 15.8024 272.618 15.4184C272.618 14.6078 272.682 14.2024 272.809 14.2024L289.514 11.1944C289.599 11.1518 289.663 11.2798 289.705 11.5784C289.791 11.8771 289.834 12.1971 289.834 12.5384C289.834 12.8798 289.791 13.1998 289.705 13.4984C289.663 13.7971 289.599 13.9678 289.514 14.0104L272.937 17.0184Z" fill="white"/>
<path d="M297.145 26.3624C300.9 23.2904 303.758 20.7944 305.721 18.8744C307.726 16.9118 309.156 15.2051 310.009 13.7544C310.905 12.2611 311.353 10.7678 311.353 9.27444C311.353 7.56777 310.841 6.18111 309.817 5.11444C308.793 4.00511 307.47 3.45044 305.849 3.45044C302.606 3.45044 300.196 6.11711 298.617 11.4504C298.617 11.4931 298.532 11.5144 298.361 11.5144C297.977 11.5144 297.806 11.4291 297.849 11.2584L300.409 1.33844C300.409 1.25311 300.494 1.21044 300.665 1.21044C300.793 1.21044 300.9 1.25311 300.985 1.33844C301.113 1.38111 301.156 1.42377 301.113 1.46644C301.07 1.63711 301.049 1.87177 301.049 2.17044C301.049 2.85311 301.369 3.19444 302.009 3.19444C302.35 3.19444 303.012 3.04511 303.993 2.74644C305.742 2.19177 307.3 1.91444 308.665 1.91444C310.884 1.91444 312.633 2.49044 313.913 3.64244C315.193 4.79444 315.833 6.30911 315.833 8.18644C315.833 9.76511 315.321 11.3224 314.297 12.8584C313.273 14.3518 311.886 15.8664 310.137 17.4024C308.388 18.9384 305.849 20.9864 302.521 23.5464C302.393 23.6744 302.35 23.7811 302.393 23.8664C302.478 23.9518 302.628 23.9944 302.841 23.9944C307.236 23.9944 310.35 23.9304 312.185 23.8024C314.02 23.6318 315.364 23.2904 316.217 22.7784C317.07 22.2238 317.646 21.2851 317.945 19.9624C317.945 19.8771 318.052 19.8344 318.265 19.8344C318.564 19.8344 318.713 19.8984 318.713 20.0264L317.689 26.7464C317.689 26.9171 317.625 27.0878 317.497 27.2584C317.412 27.3864 317.284 27.4504 317.113 27.4504H297.593C297.38 27.4504 297.209 27.3224 297.081 27.0664C296.953 26.7678 296.974 26.5331 297.145 26.3624Z" fill="white"/>
<path d="M350.287 24.5704C350.458 24.5704 350.543 24.9758 350.543 25.7864C350.543 26.1704 350.5 26.5331 350.415 26.8744C350.372 27.2158 350.308 27.3864 350.223 27.3864C349.071 27.3011 347.343 27.2158 345.039 27.1304V37.0504C345.039 37.5198 344.868 37.8184 344.527 37.9464L341.455 39.4824C341.199 39.5678 341.071 39.6104 341.071 39.6104C340.943 39.6104 340.879 39.4398 340.879 39.0984V27.0664C338.234 26.9811 333.156 26.9384 325.647 26.9384C325.434 26.9384 325.263 26.8531 325.135 26.6824C325.007 26.5118 325.028 26.3411 325.199 26.1704L344.079 2.10644C344.164 2.02111 344.292 1.97844 344.463 1.97844C344.591 1.97844 344.719 2.02111 344.847 2.10644C344.975 2.14911 345.039 2.23444 345.039 2.36244V24.7624L350.287 24.5704ZM328.911 24.9544C332.452 24.9544 336.442 24.9118 340.879 24.8264V9.01844L328.591 24.5064C328.335 24.8051 328.442 24.9544 328.911 24.9544Z" fill="white"/>
<path d="M357.912 17.0184C357.827 17.0611 357.742 16.9118 357.657 16.5704C357.614 16.1864 357.593 15.8024 357.593 15.4184C357.593 14.6078 357.657 14.2024 357.785 14.2024L374.489 11.1944C374.574 11.1518 374.638 11.2798 374.68 11.5784C374.766 11.8771 374.809 12.1971 374.809 12.5384C374.809 12.8798 374.766 13.1998 374.68 13.4984C374.638 13.7971 374.574 13.9678 374.489 14.0104L357.912 17.0184Z" fill="white"/>
<path d="M395.112 28.2824C392.595 28.2824 390.312 27.7064 388.264 26.5544C386.259 25.4024 384.68 23.8238 383.528 21.8184C382.419 19.7704 381.864 17.4664 381.864 14.9064C381.864 12.3891 382.419 10.1491 383.528 8.18644C384.68 6.22377 386.259 4.68777 388.264 3.57844C390.312 2.46911 392.616 1.91444 395.176 1.91444C397.693 1.91444 399.933 2.49044 401.896 3.64244C403.859 4.75177 405.395 6.30911 406.504 8.31444C407.613 10.3198 408.168 12.5811 408.168 15.0984C408.168 17.6158 407.613 19.8771 406.504 21.8824C405.395 23.8878 403.837 25.4664 401.832 26.6184C399.869 27.7278 397.629 28.2824 395.112 28.2824ZM395.816 27.3224C398.248 27.3224 400.083 26.2984 401.32 24.2504C402.6 22.2024 403.24 19.4291 403.24 15.9304C403.24 11.6211 402.408 8.37844 400.744 6.20244C399.08 3.98377 397.011 2.87444 394.536 2.87444C392.061 2.87444 390.141 3.94111 388.776 6.07444C387.411 8.16511 386.728 10.9171 386.728 14.3304C386.728 18.1704 387.56 21.3064 389.224 23.7384C390.888 26.1278 393.085 27.3224 395.816 27.3224Z" fill="white"/>
<path d="M422.092 7.93044C422.092 6.60777 421.964 5.64777 421.708 5.05044C421.452 4.45311 420.94 4.04777 420.172 3.83444C419.447 3.62111 418.273 3.51444 416.652 3.51444C416.524 3.51444 416.46 3.38644 416.46 3.13044C416.46 2.87444 416.524 2.74644 416.652 2.74644C417.932 2.74644 418.935 2.76777 419.66 2.81044L424.076 2.87444L428.428 2.81044C429.196 2.76777 430.22 2.74644 431.5 2.74644C431.628 2.74644 431.692 2.87444 431.692 3.13044C431.692 3.38644 431.628 3.51444 431.5 3.51444C429.964 3.51444 428.812 3.64244 428.044 3.89844C427.276 4.11177 426.743 4.51711 426.444 5.11444C426.188 5.71177 426.06 6.65044 426.06 7.93044V22.2664C426.06 23.5891 426.188 24.5491 426.444 25.1464C426.7 25.7438 427.191 26.1491 427.916 26.3624C428.684 26.5758 429.879 26.6824 431.5 26.6824C431.628 26.6824 431.692 26.8104 431.692 27.0664C431.692 27.3224 431.628 27.4504 431.5 27.4504C430.22 27.4504 429.217 27.4291 428.492 27.3864L424.076 27.3224L419.724 27.3864C418.956 27.4291 417.932 27.4504 416.652 27.4504C416.524 27.4504 416.46 27.3224 416.46 27.0664C416.46 26.8104 416.524 26.6824 416.652 26.6824C418.188 26.6824 419.34 26.5758 420.108 26.3624C420.876 26.1064 421.388 25.6798 421.644 25.0824C421.943 24.4851 422.092 23.5464 422.092 22.2664V7.93044Z" fill="white"/>
</svg>
