<svg width="96" height="96" viewBox="0 0 96 96" fill="none" xmlns="http://www.w3.org/2000/svg">
<path d="M22.4283 55.5987L22.4283 55.5987L22.4233 55.5917C17.0316 48.1472 13.6059 41.62 11.5305 36.6831C10.4927 34.2142 9.79387 32.1463 9.35576 30.5633C8.91159 28.9583 8.75 27.9035 8.75 27.439C8.75 26.8774 8.86272 26.5061 9.10009 26.2622C9.33727 26.0185 9.84829 25.75 11.0007 25.75H19.7528C20.759 25.75 21.3213 25.9633 21.7317 26.3352C22.1788 26.7403 22.5496 27.4227 22.9634 28.6006C25.1226 34.796 28.0225 40.604 30.7652 44.8746C32.1353 47.0078 33.4795 48.7782 34.6869 50.0251C35.2899 50.6479 35.8757 51.1577 36.4292 51.5168C36.9693 51.8671 37.553 52.1229 38.1348 52.1229C38.4604 52.1229 38.8214 52.0879 39.1635 51.936C39.5269 51.7747 39.8128 51.5071 40.0193 51.1403C40.393 50.4763 40.5102 49.4693 40.5102 48.084V35.3841V35.3633L40.509 35.3424C40.3375 32.2589 39.4088 30.5387 38.5015 29.3226C38.295 29.0459 38.0915 28.7976 37.9115 28.578L37.8785 28.5378C37.6857 28.3024 37.5273 28.1072 37.3958 27.9196C37.1407 27.556 37.0343 27.2873 37.0343 26.9832C37.0343 26.4456 37.5197 25.75 38.5099 25.75H52.2632C53.0609 25.75 53.4128 25.9554 53.6109 26.2165C53.8495 26.5309 54.0138 27.1115 54.0138 28.1707V45.2533C54.0138 47.2225 54.9283 48.4694 56.1241 48.4694C57.5919 48.4694 58.7325 47.5722 60.7315 45.6028L60.7463 45.5882L60.7604 45.5727C63.9725 42.0353 66.6951 37.5662 68.6074 34.0052C69.566 32.2202 70.3258 30.6541 70.8464 29.5333C71.1068 28.9727 71.3076 28.5231 71.4436 28.2128C71.5116 28.0576 71.5634 27.9372 71.5985 27.8552L71.6384 27.7612L71.6487 27.7366L71.6502 27.733C71.8947 27.1701 72.2202 26.6864 72.6847 26.3407C73.1416 26.0005 73.7915 25.75 74.7661 25.75H83.5158C84.7503 25.75 85.2413 26.0659 85.4318 26.3341C85.6297 26.6128 85.7029 27.1161 85.4488 27.9527L85.4404 27.9801L85.4342 28.0081C85.1815 29.1465 84.3571 30.9279 83.1991 33.0245C82.0547 35.0964 80.6279 37.4007 79.2299 39.5575C77.8329 41.7128 76.4699 43.7128 75.4558 45.1745C74.9489 45.9051 74.5295 46.5008 74.237 46.9135C74.0907 47.1198 73.9763 47.2804 73.8985 47.3892L73.8099 47.5129L73.7874 47.5442L73.7818 47.552L73.7804 47.5539L73.7801 47.5543C73.7801 47.5544 73.7801 47.5544 74.3886 47.9928L73.7801 47.5544L73.7669 47.5726L73.7549 47.5915C73.3155 48.2855 72.8712 48.9927 72.8065 49.781C72.7368 50.6292 73.1023 51.4088 73.7906 52.2817C74.2907 52.9673 75.2982 53.9398 76.3619 54.9665L76.4626 55.0637C77.6038 56.1654 78.8528 57.3745 79.8461 58.5306L79.8521 58.5376L79.8583 58.5445C81.7339 60.622 83.3645 62.5226 84.6209 64.1976C85.884 65.8817 86.725 67.2813 87.0806 68.368C87.3987 69.4452 87.2258 70.0529 86.9267 70.3951C86.6 70.7689 85.9277 71.0585 84.7686 71.0585H76.0164C75.2912 71.0585 74.7236 70.9186 74.1849 70.6407C73.6303 70.3546 73.073 69.9053 72.392 69.2324C71.8396 68.6866 71.2359 68.025 70.5032 67.2218C70.3282 67.03 70.1458 66.8301 69.955 66.6218C68.9728 65.5494 67.7893 64.2787 66.2928 62.8044L66.2929 62.8043L66.2831 62.7949C61.0768 57.8485 58.6634 57.016 57.0494 57.016C56.157 57.016 55.2523 57.1237 54.663 57.8462C54.382 58.1908 54.2253 58.6143 54.1348 59.0771C54.0446 59.5388 54.0113 60.0867 54.0113 60.7223V68.4555C54.0113 69.4472 53.849 69.9446 53.3086 70.3017C52.6463 70.7392 51.2921 71.0585 48.5098 71.0585C39.531 71.0585 29.551 65.6757 22.4283 55.5987Z" stroke="white" stroke-width="1.5"/>
</svg>
