<svg width="96" height="96" viewBox="0 0 96 96" fill="none" xmlns="http://www.w3.org/2000/svg">
<path d="M27.6 82.4C33.6 86 40.8 88 48 88C70 88 88 70 88 48C88 26 70 8 48 8C26 8 8 26 8 48C8 55.2 10 62 13.2 68L8.44044 86.306C8.24572 87.0549 8.93892 87.7317 9.68299 87.5191L27.6 82.4Z" stroke="white" stroke-width="1.5" stroke-miterlimit="10" stroke-linecap="round" stroke-linejoin="round"/>
<path d="M66 59.394C66 60.042 65.8558 60.708 65.5493 61.356C65.2429 62.004 64.8463 62.616 64.3235 63.192C63.4402 64.164 62.4667 64.866 61.3671 65.316C60.2854 65.766 59.1137 66 57.8518 66C56.013 66 54.0481 65.568 51.975 64.686C49.9019 63.804 47.8287 62.616 45.7737 61.122C43.7006 59.61 41.7356 57.936 39.8608 56.082C38.004 54.21 36.3275 52.248 34.8312 50.196C33.353 48.144 32.1632 46.092 31.2979 44.058C30.4326 42.006 30 40.044 30 38.172C30 36.948 30.2163 35.778 30.649 34.698C31.0816 33.6 31.7667 32.592 32.7221 31.692C33.8758 30.558 35.1377 30 36.4717 30C36.9765 30 37.4812 30.108 37.9319 30.324C38.4006 30.54 38.8152 30.864 39.1397 31.332L43.322 37.218C43.6465 37.668 43.8808 38.082 44.0431 38.478C44.2053 38.856 44.2954 39.234 44.2954 39.576C44.2954 40.008 44.1693 40.44 43.9169 40.854C43.6825 41.268 43.34 41.7 42.9074 42.132L41.5373 43.554C41.339 43.752 41.2489 43.986 41.2489 44.274C41.2489 44.418 41.2669 44.544 41.303 44.688C41.357 44.832 41.4111 44.94 41.4472 45.048C41.7717 45.642 42.3305 46.416 43.1237 47.352C43.9349 48.288 44.8002 49.242 45.7376 50.196C46.7111 51.15 47.6485 52.032 48.6039 52.842C49.5413 53.634 50.3165 54.174 50.9294 54.498C51.0195 54.534 51.1277 54.588 51.2539 54.642C51.3981 54.696 51.5423 54.714 51.7046 54.714C52.011 54.714 52.2454 54.606 52.4437 54.408L53.8137 53.058C54.2644 52.608 54.697 52.266 55.1117 52.05C55.5263 51.798 55.9409 51.672 56.3916 51.672C56.7341 51.672 57.0946 51.744 57.4912 51.906C57.8878 52.068 58.3025 52.302 58.7531 52.608L64.7201 56.838C65.1888 57.162 65.5133 57.54 65.7116 57.99C65.8918 58.44 66 58.89 66 59.394Z" stroke="white" stroke-width="1.5" stroke-miterlimit="10"/>
</svg>
