<svg width="31" height="31" viewBox="0 0 31 31" fill="none" xmlns="http://www.w3.org/2000/svg">
<path d="M28.3909 14.7377C27.9517 7.24602 21.1446 1.47227 13.3042 2.76393C7.90506 3.65518 3.57797 8.03393 2.73839 13.4331C2.24756 16.5589 2.89339 19.5168 4.30131 21.9581L3.15172 26.2335C2.89339 27.2023 3.78464 28.0806 4.74047 27.8094L8.95131 26.6468C10.863 27.7706 13.0976 28.4164 15.4871 28.4164C22.7721 28.4164 28.8171 21.9968 28.3909 14.7377ZM21.8034 20.3048C21.4919 20.9438 20.9597 21.4484 20.3051 21.7256C19.9176 21.8935 19.4913 21.971 19.0392 21.971C18.3805 21.971 17.6701 21.816 16.9338 21.4931C16.1491 21.1486 15.4042 20.7198 14.7121 20.2143C13.963 19.6719 13.2655 19.0648 12.5938 18.406C11.9221 17.7344 11.328 17.0239 10.7855 16.2877C10.2559 15.5514 9.82964 14.8152 9.51964 14.0789C9.20964 13.3427 9.05464 12.6323 9.05464 11.9606C9.05464 11.5214 9.13214 11.0952 9.28714 10.7077C9.44214 10.3073 9.68756 9.9456 10.0363 9.62268C10.4496 9.20935 10.9017 9.0156 11.3796 9.0156C11.5605 9.0156 11.7413 9.05435 11.9092 9.13185C12.0771 9.20935 12.2321 9.3256 12.3484 9.49352L13.8467 11.6118C13.963 11.7798 14.0534 11.9219 14.1051 12.0639C14.1696 12.206 14.1955 12.3352 14.1955 12.4643C14.1955 12.6193 14.1438 12.7744 14.0534 12.9294C13.963 13.0844 13.8467 13.2394 13.6917 13.3944L13.2009 13.911C13.1234 13.9885 13.0976 14.066 13.0976 14.1694C13.0976 14.221 13.1105 14.2727 13.1234 14.3244C13.1492 14.376 13.1621 14.4148 13.1751 14.4535C13.2913 14.6731 13.498 14.9444 13.7821 15.2802C14.3869 15.9908 15.0478 16.6517 15.7584 17.2564C16.0942 17.5406 16.3784 17.7344 16.598 17.8506C16.6367 17.8635 16.6755 17.8893 16.7142 17.9023C16.7659 17.9281 16.8176 17.9281 16.8821 17.9281C16.9984 17.9281 17.0759 17.8894 17.1534 17.8119L17.6442 17.321C17.8121 17.1531 17.9671 17.0369 18.1092 16.9594C18.2642 16.8689 18.4063 16.8173 18.5742 16.8173C18.7034 16.8173 18.8326 16.8431 18.9746 16.9077C19.1167 16.9723 19.2717 17.0498 19.4267 17.166L21.5709 18.6902C21.7388 18.8064 21.8551 18.9485 21.9326 19.1035C21.9971 19.2714 22.0359 19.4264 22.0359 19.6073C21.9584 19.8269 21.9067 20.0723 21.8034 20.3048Z" fill="white" fill-opacity="0.9"/>
</svg>
